<svg xmlns="http://www.w3.org/2000/svg" viewBox="0 0 64 64" width="512px" height="512px"><path fill="#ed7899" d="M49,59H15C9.477,59,5,54.523,5,49V15C5,9.477,9.477,5,15,5h34c5.523,0,10,4.477,10,10v34 C59,54.523,54.523,59,49,59z"/><path fill="#e0678f" d="M57.66,54c-1.73,2.99-4.96,5-8.66,5H15c-3.7,0-6.93-2.01-8.66-5H57.66z"/><path fill="#faefde" d="M48.954,44.132c-1.083-0.895-2.685-2.007-4.072-2.413c-2.837-0.827-4.243,0.701-4.255,0.72 c-3.474,3.225-12.556,4.837-21.867-1.683c-2.419-1.693-4.475-3.287-6.163-5.081c1.199,0.562,2.695,1.174,4.392,1.685 c5.812,1.749,11.202,1.433,15.592-0.916c0.208-0.112,0.348-0.319,0.372-0.555c0.024-0.235-0.071-0.467-0.253-0.619 c-3.109-2.589-10.086-8.727-15.405-15.813c5.179,4.271,7.588,6.041,11.408,8.333c0.31,0.186,0.709,0.11,0.93-0.176 c0.22-0.286,0.19-0.692-0.068-0.944c-2.446-2.376-5.336-6.147-7.483-9.123c4.401,3.716,11.25,9.349,15.465,12.082 c0.167,0.109,0.375,0.141,0.567,0.092c0.193-0.051,0.356-0.181,0.449-0.357c2.472-4.697,2.147-10.599-0.821-16.583 c7.309,6.56,10.723,15.7,8.198,22.797c-0.093,0.261-0.026,0.552,0.173,0.747C47.975,38.147,49,40.586,49,43.191 C49,43.506,48.985,43.82,48.954,44.132z"/><path fill="#fff7f0" d="M49.69,42.11L49,43L29.59,27.54c0.22-0.3,0.19-0.71-0.08-0.98c-2.56-2.48-5.58-6.43-7.83-9.54 c4.6,3.89,10.903,9.218,15.313,12.078c0.17,0.11,0.39,0.15,0.59,0.09c0.2-0.05,0.37-0.19,0.47-0.37 c2.59-4.91,2.473-10.308-0.637-16.568c7.65,6.87,11.863,16.21,9.223,23.63c-0.1,0.27-0.03,0.58,0.18,0.78 C48.35,38.16,49.34,40.05,49.69,42.11z"/><path fill="#8d6c9f" d="M57.69,55.719c0.038-0.037,0.062-0.084,0.094-0.126C59.169,53.753,60,51.475,60,49V15 c0-6.065-4.935-11-11-11H15C8.935,4,4,8.935,4,15v34c0,2.475,0.831,4.753,2.216,6.593c0.032,0.042,0.056,0.089,0.094,0.125 C8.324,58.317,11.466,60,15,60h34C52.534,60,55.676,58.317,57.69,55.719z M8,54.645V53c0-0.553-0.447-1-1-1 c-0.158,0-0.302,0.044-0.435,0.109C6.206,51.138,6,50.094,6,49V15c0-4.963,4.037-9,9-9h34c4.963,0,9,4.037,9,9v34 c0,1.094-0.206,2.138-0.565,3.109C57.302,52.044,57.158,52,57,52c-0.553,0-1,0.447-1,1v1.645C54.349,56.688,51.826,58,49,58H15 C12.174,58,9.651,56.688,8,54.645z"/><path fill="#8d6c9f" d="M12 52c-.553 0-1 .447-1 1v2c0 .553.447 1 1 1s1-.447 1-1v-2C13 52.447 12.553 52 12 52zM27 52c-.553 0-1 .447-1 1v2c0 .553.447 1 1 1s1-.447 1-1v-2C28 52.447 27.553 52 27 52zM32 52c-.553 0-1 .447-1 1v2c0 .553.447 1 1 1s1-.447 1-1v-2C33 52.447 32.553 52 32 52zM37 52c-.553 0-1 .447-1 1v2c0 .553.447 1 1 1s1-.447 1-1v-2C38 52.447 37.553 52 37 52zM42 52c-.553 0-1 .447-1 1v2c0 .553.447 1 1 1s1-.447 1-1v-2C43 52.447 42.553 52 42 52zM47 52c-.553 0-1 .447-1 1v2c0 .553.447 1 1 1s1-.447 1-1v-2C48 52.447 47.553 52 47 52zM52 56c.553 0 1-.447 1-1v-2c0-.553-.447-1-1-1s-1 .447-1 1v2C51 55.553 51.447 56 52 56zM17 52c-.553 0-1 .447-1 1v2c0 .553.447 1 1 1s1-.447 1-1v-2C18 52.447 17.553 52 17 52zM22 52c-.553 0-1 .447-1 1v2c0 .553.447 1 1 1s1-.447 1-1v-2C23 52.447 22.553 52 22 52zM37.743 12.781c7.309 6.56 10.723 15.7 8.198 22.797-.093.261-.026.552.173.747C47.975 38.148 49 40.586 49 43.191c0 .315-.015.629-.046.941-1.083-.895-2.685-2.007-4.072-2.413-.604-.176-1.142-.245-1.617-.245-1.756 0-2.629.95-2.639.965-1.731 1.606-4.853 2.813-8.702 2.813-3.877 0-8.492-1.224-13.164-4.496-2.419-1.693-4.475-3.287-6.163-5.081 1.199.562 2.695 1.174 4.392 1.685 2.469.743 4.863 1.113 7.135 1.113 3.076 0 5.932-.679 8.456-2.029.208-.112.348-.32.372-.555.024-.235-.071-.467-.253-.619-3.109-2.589-10.086-8.727-15.405-15.813 5.179 4.271 7.588 6.041 11.408 8.333.114.068.24.101.366.101.214 0 .425-.097.564-.277.22-.286.19-.692-.068-.944-2.446-2.376-5.336-6.147-7.483-9.123 4.401 3.716 11.25 9.349 15.465 12.082.116.076.252.114.388.114.06 0 .12-.007.179-.023.193-.051.356-.181.449-.357C41.036 24.667 40.711 18.765 37.743 12.781M37.743 10.781c-.425 0-.851.135-1.21.408-.764.581-1.008 1.622-.582 2.481 2.412 4.864 2.905 9.575 1.438 13.442-4.29-2.982-10.496-8.12-14.016-11.092-.373-.315-.832-.472-1.29-.472-.489 0-.977.178-1.359.533-.741.687-.854 1.818-.263 2.637.411.57.858 1.181 1.332 1.815-.953-.757-2.01-1.616-3.225-2.619-.371-.306-.822-.457-1.272-.457-.499 0-.997.186-1.382.554-.732.7-.826 1.837-.218 2.647 4.701 6.263 10.703 11.825 14.166 14.824-1.763.658-3.686.991-5.737.991-2.084 0-4.291-.346-6.559-1.029-1.385-.417-2.771-.949-4.12-1.581-.273-.128-.562-.189-.848-.189-.625 0-1.234.293-1.621.827-.563.777-.495 1.845.163 2.544 1.989 2.113 4.388 3.89 6.473 5.349 5.733 4.014 10.947 4.857 14.311 4.857 4.043 0 7.805-1.251 10.063-3.347.028-.026.055-.052.081-.08.071-.059.46-.351 1.197-.351.325 0 .681.056 1.057.165.853.249 2.141 1.029 3.358 2.035.365.301.817.458 1.274.458.258 0 .517-.05.763-.151.683-.282 1.155-.918 1.227-1.654C50.981 43.952 51 43.57 51 43.192c0-2.875-1.033-5.582-2.926-7.707 2.276-7.641-1.265-17.253-8.995-24.192C38.7 10.953 38.222 10.781 37.743 10.781L37.743 10.781z"/></svg>